<svg id="Layer_1" data-name="Layer 1" xmlns="http://www.w3.org/2000/svg" viewBox="0 0 64 92.93"><defs><style>.cls-1{fill:#fff;}</style></defs><title>faculty copy 3</title><path class="cls-1" d="M63,39.23a1,1,0,0,0,1-1V23.74a5.17,5.17,0,0,0-5.16-5.16H34.06a1,1,0,0,0-1,1v4.13a1,1,0,0,0,1,1H48.52V33h-6.2a3.1,3.1,0,0,0-3.09,3.1V51.61H24.77V48.52a1,1,0,0,0-1-1H12.39V22.71H29.94a1,1,0,0,0,1-1v-6.2h9.29a1,1,0,0,0,.79-1.69L36.44,8.26l4.61-5.53a1,1,0,0,0,.14-1.1,1,1,0,0,0-.93-.6H21.68a1,1,0,0,0-1,1v6.2H12.39V6.83a4.13,4.13,0,1,0-6.2,0V47.48H1a1,1,0,0,0-1,1V63a1,1,0,0,0,1,1H63a1,1,0,0,0,1-1v-6.2a1,1,0,0,0-1-1h-3.1V39.23ZM38.05,3.1,34.3,7.6a1,1,0,0,0,0,1.32l3.75,4.5H31V9.29a1,1,0,0,0-.36-.77h0L24.42,3.1ZM22.71,4.34l4.48,3.92H22.71ZM12.39,18.58h6.19V16.52H12.39V14.45h6.19V12.39H12.39V10.32H28.9V20.65H12.39ZM9.29,2.06A2.07,2.07,0,1,1,7.23,4.13,2.07,2.07,0,0,1,9.29,2.06Zm1,6V47.48H8.26V8.11a3.61,3.61,0,0,0,2.06,0Zm51.62,49.7v4.13H2.06V49.55H22.71v3.1a1,1,0,0,0,1,1H45.42v3.09a1,1,0,0,0,1,1Zm-15.49-6.2h-1V39.23h8.26V55.74h-6.2V52.65A1,1,0,0,0,46.45,51.61ZM57.81,26.84v28.9H55.74V38.19a1,1,0,0,0-1-1H44.39a1,1,0,0,0-1,1V51.61H41.29V36.13a1,1,0,0,1,1-1h7.23a1,1,0,0,0,1-1V23.74a1,1,0,0,0-1-1H35.1V20.65H58.84a3.09,3.09,0,0,1,3.1,3.09V37.16H59.87V26.84Z"/><path class="cls-1" d="M53.68,16.52a5.17,5.17,0,0,0,5.16-5.17V9.29a5.16,5.16,0,0,0-10.32,0v2.06A5.17,5.17,0,0,0,53.68,16.52Zm-3.1-7.23a3.1,3.1,0,1,1,6.19,0v2.06a3.1,3.1,0,1,1-6.19,0Z"/><path class="cls-1" d="M9.56,70.52h1.63a5.48,5.48,0,0,1,1.91.24,2,2,0,0,1,.92.79,2.47,2.47,0,0,1,.33,1.31,2.15,2.15,0,0,1-.44,1.4,2.3,2.3,0,0,1-1.2.78,7,7,0,0,1-1.61.13v3.41H9.56Zm1.54,3.15h.48a2.89,2.89,0,0,0,.81-.08.74.74,0,0,0,.35-.28.83.83,0,0,0,.13-.46.74.74,0,0,0-.36-.68,2.17,2.17,0,0,0-1-.16H11.1Z"/><path class="cls-1" d="M15.34,72.62h1.28v.75a1.66,1.66,0,0,1,.56-.68,1.35,1.35,0,0,1,.75-.23,1.29,1.29,0,0,1,.61.16l-.46,1.28a1.17,1.17,0,0,0-.44-.13.69.69,0,0,0-.58.43,3.9,3.9,0,0,0-.24,1.68v2.7H15.34Z"/><path class="cls-1" d="M22.08,72.46A3.17,3.17,0,0,1,24.83,74a3,3,0,0,1,.42,1.56,3.11,3.11,0,0,1-.42,1.58,3,3,0,0,1-1.15,1.15,3.09,3.09,0,0,1-1.59.41,3,3,0,0,1-2.19-.91A3.16,3.16,0,0,1,20,73.27,3,3,0,0,1,22.08,72.46Zm0,1.41a1.51,1.51,0,0,0-1.16.49,1.71,1.71,0,0,0-.47,1.24,1.77,1.77,0,0,0,.46,1.26,1.64,1.64,0,0,0,2.33,0,1.91,1.91,0,0,0,0-2.5A1.56,1.56,0,0,0,22.11,73.87Z"/><path class="cls-1" d="M30.88,72.62h1.49v5.1A3.36,3.36,0,0,1,31.76,80a3.06,3.06,0,0,1-2.46,1,4.48,4.48,0,0,1-1.48-.22,2.75,2.75,0,0,1-1-.65,2.57,2.57,0,0,1-.6-1h1.65a1.33,1.33,0,0,0,.56.38,2.24,2.24,0,0,0,.82.13,2.09,2.09,0,0,0,1-.19,1.11,1.11,0,0,0,.52-.48,2.47,2.47,0,0,0,.15-1,2.68,2.68,0,0,1-.83.57,2.76,2.76,0,0,1-1,.17,2.69,2.69,0,0,1-2-.87,3.35,3.35,0,0,1,.05-4.47,2.61,2.61,0,0,1,1.9-.78,2.66,2.66,0,0,1,1,.19,3.24,3.24,0,0,1,.92.62Zm-1.55,1.24a1.56,1.56,0,0,0-1.17.47,1.81,1.81,0,0,0,0,2.42,1.58,1.58,0,0,0,1.18.48,1.53,1.53,0,0,0,1.15-.47A1.69,1.69,0,0,0,31,75.54a1.66,1.66,0,0,0-.45-1.21A1.57,1.57,0,0,0,29.33,73.86Z"/><path class="cls-1" d="M33.53,72.62h1.28v.75a1.66,1.66,0,0,1,.56-.68,1.35,1.35,0,0,1,.75-.23,1.29,1.29,0,0,1,.61.16l-.46,1.28a1.17,1.17,0,0,0-.44-.13.69.69,0,0,0-.58.43A3.9,3.9,0,0,0,35,75.88v2.7H33.53Z"/><path class="cls-1" d="M41.87,72.62h1.5v6h-1.5V78a2.84,2.84,0,0,1-.87.6,2.56,2.56,0,0,1-1,.18,2.67,2.67,0,0,1-2-.89,3.14,3.14,0,0,1-.84-2.23A3.24,3.24,0,0,1,38,73.34a2.65,2.65,0,0,1,2-.88,2.42,2.42,0,0,1,1,.21,2.52,2.52,0,0,1,.87.6ZM40.3,73.84a1.53,1.53,0,0,0-1.15.49,2,2,0,0,0,0,2.53,1.48,1.48,0,0,0,1.15.5,1.53,1.53,0,0,0,1.17-.49,1.76,1.76,0,0,0,.46-1.28,1.73,1.73,0,0,0-.46-1.26A1.59,1.59,0,0,0,40.3,73.84Z"/><path class="cls-1" d="M44.87,72.62h1.5v.68a2.65,2.65,0,0,1,.85-.63,2.53,2.53,0,0,1,1-.21,1.85,1.85,0,0,1,1,.28,1.94,1.94,0,0,1,.72.8,2.45,2.45,0,0,1,.87-.8A2.35,2.35,0,0,1,52,72.46a2.09,2.09,0,0,1,1.12.3,1.7,1.7,0,0,1,.69.77A4.17,4.17,0,0,1,54,75.08v3.5H52.5v-3a2.58,2.58,0,0,0-.25-1.37.86.86,0,0,0-.75-.36,1.12,1.12,0,0,0-.69.22,1.27,1.27,0,0,0-.45.61,3.68,3.68,0,0,0-.15,1.24v2.69H48.7V75.69a4,4,0,0,0-.12-1.16,1,1,0,0,0-.35-.53.92.92,0,0,0-.57-.18A1.17,1.17,0,0,0,47,74a1.3,1.3,0,0,0-.46.63,3.81,3.81,0,0,0-.15,1.26v2.65h-1.5Z"/><path class="cls-1" d="M59.09,73.45l-.93.93a1.53,1.53,0,0,0-1-.56.68.68,0,0,0-.4.1.33.33,0,0,0-.14.27.33.33,0,0,0,.09.22,1.68,1.68,0,0,0,.45.28l.55.27a3.47,3.47,0,0,1,1.19.87,1.79,1.79,0,0,1,.32,1,1.7,1.7,0,0,1-.59,1.32,2.19,2.19,0,0,1-1.56.53,2.48,2.48,0,0,1-2.08-1l.92-1a2.09,2.09,0,0,0,.61.5,1.48,1.48,0,0,0,.63.19.73.73,0,0,0,.48-.15.4.4,0,0,0,.18-.32c0-.24-.22-.46-.65-.68L56.63,76q-1.44-.73-1.44-1.83A1.6,1.6,0,0,1,55.73,73a2,2,0,0,1,1.4-.5,2.45,2.45,0,0,1,2,1Z"/></svg>